<svg width="433" height="185" viewBox="0 0 433 185" fill="none" xmlns="http://www.w3.org/2000/svg">
<circle cx="410" cy="13" r="2" fill="#FFC977"/>
<circle cx="410" cy="171" r="5" fill="#FFC977"/>
<circle cx="22" cy="11" r="5" fill="#FFC977"/>
<circle cx="22" cy="169" r="2" fill="#FFC977"/>
<circle cx="22" cy="37.3333" r="4.5" fill="#FFC977"/>
<circle cx="22" cy="63.6667" r="4" fill="#FFC977"/>
<circle cx="22" cy="90" r="3.5" fill="#FFC977"/>
<circle cx="22" cy="116.333" r="3" fill="#FFC977"/>
<circle cx="22" cy="142.667" r="2.5" fill="#FFC977"/>
<circle cx="410" cy="39.3333" r="2.5" fill="#FFC977"/>
<circle cx="410" cy="65.6667" r="3" fill="#FFC977"/>
<circle cx="410" cy="92" r="3.5" fill="#FFC977"/>
<circle cx="410" cy="118.333" r="4" fill="#FFC977"/>
<circle cx="410" cy="144.667" r="4.5" fill="#FFC977"/>
<circle cx="374.727" cy="12.8181" r="2.27273" fill="#FFC977"/>
<circle cx="339.455" cy="12.6363" r="2.54545" fill="#FFC977"/>
<circle cx="304.181" cy="12.4544" r="2.81818" fill="#FFC977"/>
<circle cx="268.909" cy="12.2725" r="3.09091" fill="#FFC977"/>
<circle cx="233.636" cy="12.0909" r="3.36364" fill="#FFC977"/>
<circle cx="198.364" cy="11.9091" r="3.63636" fill="#FFC977"/>
<circle cx="163.091" cy="11.7275" r="3.90909" fill="#FFC977"/>
<circle cx="127.819" cy="11.5456" r="4.18182" fill="#FFC977"/>
<circle cx="92.5455" cy="11.3637" r="4.45455" fill="#FFC977"/>
<circle cx="57.2732" cy="11.1819" r="4.72727" fill="#FFC977"/>
<circle cx="57.2723" cy="37.5152" r="4.31818" fill="#FFC977"/>
<circle cx="92.5454" cy="37.6969" r="4.13636" fill="#FFC977"/>
<circle cx="127.818" cy="37.8789" r="3.95455" fill="#FFC977"/>
<circle cx="163.091" cy="38.0606" r="3.77273" fill="#FFC977"/>
<circle cx="198.363" cy="38.2423" r="3.59091" fill="#FFC977"/>
<circle cx="233.637" cy="38.4242" r="3.40909" fill="#FFC977"/>
<circle cx="268.909" cy="38.6062" r="3.22727" fill="#FFC977"/>
<circle cx="304.182" cy="38.7879" r="3.04545" fill="#FFC977"/>
<circle cx="339.455" cy="38.9696" r="2.86364" fill="#FFC977"/>
<circle cx="374.728" cy="39.1515" r="2.68182" fill="#FFC977"/>
<circle cx="57.2724" cy="63.8485" r="3.90909" fill="#FFC977"/>
<circle cx="92.5457" cy="64.0303" r="3.81818" fill="#FFC977"/>
<circle cx="127.818" cy="64.2121" r="3.72727" fill="#FFC977"/>
<circle cx="163.09" cy="64.3939" r="3.63636" fill="#FFC977"/>
<circle cx="198.364" cy="64.5757" r="3.54545" fill="#FFC977"/>
<circle cx="233.636" cy="64.7575" r="3.45455" fill="#FFC977"/>
<circle cx="268.91" cy="64.9393" r="3.36364" fill="#FFC977"/>
<circle cx="304.182" cy="65.1211" r="3.27273" fill="#FFC977"/>
<circle cx="339.454" cy="65.3029" r="3.18182" fill="#FFC977"/>
<circle cx="374.728" cy="65.485" r="3.09091" fill="#FFC977"/>
<circle cx="57.2725" cy="90.1816" r="3.5" fill="#FFC977"/>
<circle cx="92.5459" cy="90.3638" r="3.5" fill="#FFC977"/>
<circle cx="127.818" cy="90.5454" r="3.5" fill="#FFC977"/>
<circle cx="163.091" cy="90.7273" r="3.5" fill="#FFC977"/>
<circle cx="198.363" cy="90.9092" r="3.5" fill="#FFC977"/>
<circle cx="233.637" cy="91.0908" r="3.5" fill="#FFC977"/>
<circle cx="268.909" cy="91.2727" r="3.5" fill="#FFC977"/>
<circle cx="304.182" cy="91.4546" r="3.5" fill="#FFC977"/>
<circle cx="339.454" cy="91.6362" r="3.5" fill="#FFC977"/>
<circle cx="374.728" cy="91.8184" r="3.5" fill="#FFC977"/>
<circle cx="57.2725" cy="116.515" r="3.09091" fill="#FFC977"/>
<circle cx="92.5451" cy="116.697" r="3.18182" fill="#FFC977"/>
<circle cx="127.819" cy="116.879" r="3.27273" fill="#FFC977"/>
<circle cx="163.091" cy="117.061" r="3.36364" fill="#FFC977"/>
<circle cx="198.364" cy="117.242" r="3.45455" fill="#FFC977"/>
<circle cx="233.636" cy="117.424" r="3.54545" fill="#FFC977"/>
<circle cx="268.909" cy="117.606" r="3.63636" fill="#FFC977"/>
<circle cx="304.181" cy="117.788" r="3.72727" fill="#FFC977"/>
<circle cx="339.455" cy="117.97" r="3.81818" fill="#FFC977"/>
<circle cx="374.727" cy="118.152" r="3.90909" fill="#FFC977"/>
<circle cx="57.2727" cy="142.849" r="2.68182" fill="#FFC977"/>
<circle cx="92.5453" cy="143.03" r="2.86364" fill="#FFC977"/>
<circle cx="127.818" cy="143.212" r="3.04545" fill="#FFC977"/>
<circle cx="163.091" cy="143.394" r="3.22727" fill="#FFC977"/>
<circle cx="198.363" cy="143.576" r="3.40909" fill="#FFC977"/>
<circle cx="233.637" cy="143.757" r="3.59091" fill="#FFC977"/>
<circle cx="268.909" cy="143.939" r="3.77273" fill="#FFC977"/>
<circle cx="304.182" cy="144.121" r="3.95455" fill="#FFC977"/>
<circle cx="339.455" cy="144.303" r="4.13636" fill="#FFC977"/>
<circle cx="374.727" cy="144.485" r="4.31818" fill="#FFC977"/>
<circle cx="374.727" cy="170.818" r="4.72727" fill="#FFC977"/>
<circle cx="339.455" cy="170.636" r="4.45455" fill="#FFC977"/>
<circle cx="304.182" cy="170.455" r="4.18182" fill="#FFC977"/>
<circle cx="268.909" cy="170.273" r="3.90909" fill="#FFC977"/>
<circle cx="233.636" cy="170.091" r="3.63636" fill="#FFC977"/>
<circle cx="198.364" cy="169.909" r="3.36364" fill="#FFC977"/>
<circle cx="163.091" cy="169.727" r="3.09091" fill="#FFC977"/>
<circle cx="127.818" cy="169.545" r="2.81818" fill="#FFC977"/>
<circle cx="92.5455" cy="169.364" r="2.54545" fill="#FFC977"/>
<circle cx="57.2727" cy="169.182" r="2.27273" fill="#FFC977"/>
</svg>
