<svg width="763" height="220" viewBox="0 0 763 220" fill="none" xmlns="http://www.w3.org/2000/svg">
<path d="M154.611 219.222C144.379 219.222 134.905 216.1 126.19 209.856C117.474 203.613 108.663 193.018 99.7581 178.071L71.337 130.677H59.9685L59.0705 219.182H21.8389L22.7369 65.9722C22.7369 56.3231 21.4106 49.2283 18.7579 44.6875C16.1053 39.9576 10.8 37.5926 2.84211 37.5926H0V29.0788H78.4422C97.7686 29.0788 115.39 32.6735 131.306 39.863C147.221 46.8633 155.179 60.3909 155.179 80.4457C155.179 94.2571 150.916 104.852 142.39 112.231C134.053 119.42 122.969 124.812 109.137 128.407L138.979 178.071C150.158 196.802 161.906 207.208 174.221 209.289V216.384C172.706 217.14 169.958 217.803 165.979 218.37C162 218.938 158.211 219.222 154.611 219.222ZM77.0212 119.326C87.6317 119.326 96.6318 116.204 104.021 109.96C111.6 103.528 115.39 93.5003 115.39 79.8781C115.39 66.256 111.695 56.3231 104.305 50.0796C96.916 43.647 88.0107 40.4306 77.5896 40.4306C72.6633 40.4306 66.7896 41.0928 59.9685 42.4172V119.326H77.0212Z" fill="url(#paint0_linear_763_352)"/>
<path d="M243.345 219.222C225.345 219.222 212.081 215.059 203.555 206.735C195.029 198.41 190.766 185.166 190.766 167.003V119.893C190.766 110.244 189.439 103.149 186.787 98.6086C184.134 93.8787 178.829 91.5137 170.871 91.5137H168.029V82.9999H202.134C208.955 82.9999 214.166 84.1351 217.766 86.4054C221.366 88.6758 223.924 92.4597 225.439 97.7572C226.955 102.866 227.713 110.244 227.713 119.893V167.287C227.713 181.477 229.702 191.599 233.681 197.653C237.66 203.518 243.724 206.451 251.871 206.451C257.934 206.451 263.05 204.559 267.218 200.775C271.576 196.991 274.987 192.734 277.45 188.004V82.9999H314.397V219.182H290.239L280.292 203.613H278.871C269.208 214.019 257.366 219.222 243.345 219.222Z" fill="url(#paint1_linear_763_352)"/>
<path d="M354.309 119.893C354.309 110.244 352.983 103.149 350.33 98.6086C347.867 93.8787 342.656 91.5137 334.698 91.5137H331.856V82.9999H359.993C366.435 82.9999 371.456 83.8513 375.056 85.554C378.846 87.0676 381.783 89.7164 383.867 93.5003C393.53 84.608 407.362 80.1619 425.362 80.1619C443.362 80.1619 456.814 84.4189 465.72 92.9327C474.814 101.257 479.362 114.407 479.362 132.38V219.182H442.414V132.096C442.414 119.042 439.951 109.487 435.025 103.433C430.288 97.3788 423.751 94.3517 415.414 94.3517C405.372 94.3517 397.32 96.7167 391.256 101.447V219.182H354.309V119.893Z" fill="url(#paint2_linear_763_352)"/>
<path d="M570.933 219.222C557.86 219.222 546.396 216.194 536.544 210.14C526.691 204.086 519.017 195.856 513.523 185.45C508.217 174.855 505.565 162.936 505.565 149.692C505.565 134.934 508.217 122.353 513.523 111.947C519.017 101.541 526.502 93.6895 535.975 88.392C545.449 82.9053 556.154 80.1619 568.091 80.1619C579.839 80.1619 590.449 82.5269 599.923 87.2568C609.397 91.9867 616.881 98.7032 622.376 107.406C627.87 115.92 630.618 125.758 630.618 136.921L629.481 154.8H543.933C543.933 172.774 546.681 185.923 552.175 194.248C557.67 202.383 565.344 206.451 575.196 206.451C584.291 206.451 591.87 204.464 597.933 200.491C604.186 196.329 610.154 190.464 615.839 182.896L624.649 189.423C619.154 197.937 612.239 205.032 603.902 210.708C595.754 216.384 584.765 219.222 570.933 219.222ZM592.249 142.029C592.249 124.245 590.165 111.663 585.997 104.285C581.828 96.7166 575.86 92.9327 568.091 92.9327C560.891 92.9327 555.018 96.8112 550.47 104.568C546.112 112.136 543.933 124.623 543.933 142.029H592.249Z" fill="url(#paint3_linear_763_352)"/>
<path d="M704.737 219.222C682.568 219.222 667.316 215.343 658.979 207.586C655.947 204.748 654.052 200.775 653.295 195.667C652.537 190.369 652.158 183.085 652.158 173.814H662.105C663.81 183.653 667.695 191.599 673.758 197.653C679.821 203.518 688.253 206.451 699.053 206.451C718 206.451 727.474 200.018 727.474 187.153C727.474 182.234 725.389 178.166 721.221 174.949C717.242 171.733 710.8 168.138 701.895 164.165L687.116 157.922C674.989 152.624 665.895 146.854 659.831 140.61C653.768 134.367 650.737 126.799 650.737 117.907C650.737 105.987 655.663 96.7166 665.516 90.0948C675.558 83.4729 688.631 80.1619 704.737 80.1619C726.905 80.1619 742.158 84.0405 750.495 91.7975C753.526 94.6355 755.421 98.6086 756.179 103.717C756.937 108.825 757.316 116.109 757.316 125.569H747.368C745.663 115.731 741.779 107.879 735.716 102.014C729.653 95.9598 721.221 92.9327 710.421 92.9327C702.274 92.9327 696.21 94.7301 692.231 98.3248C688.253 101.73 686.263 106.366 686.263 112.231C686.263 116.961 687.874 120.934 691.095 124.15C694.505 127.177 699.621 130.204 706.442 133.232L723.495 140.327C737.516 146.192 747.558 152.151 753.621 158.206C759.874 164.071 763 171.828 763 181.477C763 193.585 757.6 202.951 746.8 209.573C736.189 216.005 722.168 219.222 704.737 219.222Z" fill="url(#paint4_linear_763_352)"/>
<path d="M554.083 23.7951L567.885 0.344543L581.922 23.6188L579.501 30.0839L567.885 63.1145L562.786 48.1861L555.582 27.5566L554.083 23.7951Z" fill="url(#paint5_linear_763_352)"/>
<g opacity="0.15" clip-path="url(#clip0_763_352)">
<path d="M554.083 23.7951L567.885 0.344543L581.922 23.6188L579.501 30.0839L567.885 63.1145L562.786 48.1861L555.582 27.5566L554.083 23.7951Z" fill="#292525"/>
</g>
<defs>
<linearGradient id="paint0_linear_763_352" x1="384.168" y1="-39.0812" x2="384.168" y2="371.091" gradientUnits="userSpaceOnUse">
<stop stop-color="#C09645"/>
<stop offset="0.5" stop-color="#FFC977"/>
<stop offset="1" stop-color="#C09645"/>
</linearGradient>
<linearGradient id="paint1_linear_763_352" x1="384.168" y1="-39.0812" x2="384.168" y2="371.091" gradientUnits="userSpaceOnUse">
<stop stop-color="#C09645"/>
<stop offset="0.5" stop-color="#FFC977"/>
<stop offset="1" stop-color="#C09645"/>
</linearGradient>
<linearGradient id="paint2_linear_763_352" x1="384.168" y1="-39.0812" x2="384.168" y2="371.091" gradientUnits="userSpaceOnUse">
<stop stop-color="#C09645"/>
<stop offset="0.5" stop-color="#FFC977"/>
<stop offset="1" stop-color="#C09645"/>
</linearGradient>
<linearGradient id="paint3_linear_763_352" x1="384.168" y1="-39.0812" x2="384.168" y2="371.091" gradientUnits="userSpaceOnUse">
<stop stop-color="#C09645"/>
<stop offset="0.5" stop-color="#FFC977"/>
<stop offset="1" stop-color="#C09645"/>
</linearGradient>
<linearGradient id="paint4_linear_763_352" x1="384.168" y1="-39.0812" x2="384.168" y2="371.091" gradientUnits="userSpaceOnUse">
<stop stop-color="#C09645"/>
<stop offset="0.5" stop-color="#FFC977"/>
<stop offset="1" stop-color="#C09645"/>
</linearGradient>
<linearGradient id="paint5_linear_763_352" x1="568.003" y1="0.344543" x2="568.003" y2="63.1145" gradientUnits="userSpaceOnUse">
<stop stop-color="#FFC977"/>
<stop offset="1" stop-color="#C09645"/>
</linearGradient>
<clipPath id="clip0_763_352">
<rect width="14.0375" height="62.77" fill="white" transform="translate(567.885 0.344543)"/>
</clipPath>
</defs>
</svg>
