<svg width="380" height="320" viewBox="0 0 380 320" fill="none" xmlns="http://www.w3.org/2000/svg">
<path fill-rule="evenodd" clip-rule="evenodd" d="M52.7761 0.285188C55.3356 0.213594 57.7748 1.37043 59.3375 3.39705L86.3375 38.4138C88.0564 40.6431 88.4753 43.6113 87.4404 46.2286L64.9404 103.131C63.8211 105.962 61.1897 107.911 58.1536 108.16C55.1174 108.409 52.2034 106.913 50.6376 104.302L19.1376 51.777C17.531 49.0981 17.6332 45.7295 19.3993 43.1527L46.3993 3.75895C47.846 1.64815 50.2166 0.356782 52.7761 0.285188ZM53.3808 21.866L35.4987 47.9566L56.022 82.1783L70.8909 44.5751L53.3808 21.866Z" fill="#EFD09E"/>
<path fill-rule="evenodd" clip-rule="evenodd" d="M135.477 36.4234C133.668 37.0036 129.882 39.207 127.064 41.3192C124.245 43.4315 120.434 47.39 118.595 50.1159C116.754 52.8419 114.692 57.745 114.01 61.0123C113.298 64.4305 113.065 69.5294 113.463 73.0251C113.842 76.3668 115.018 81.605 116.076 84.6671C117.134 87.7292 118.96 92.1087 120.133 94.399C121.307 96.6893 124.56 100.688 127.361 103.285C130.164 105.882 136.242 110.855 140.87 114.335C145.497 117.816 153.069 123.19 157.696 126.279C162.323 129.367 169.54 135.238 173.734 139.324C179.64 145.081 181.358 147.422 181.358 149.715C181.358 151.342 179.867 155.46 178.046 158.864C176.061 162.57 171.779 167.827 167.37 171.969C163.197 175.889 157.479 180.037 154.169 181.546C150.957 183.011 146.086 184.424 143.342 184.686C140.599 184.949 137.211 184.877 135.813 184.529C133.543 183.961 133.217 183.193 132.741 177.301C132.447 173.649 131.226 168.788 130.003 166.401C128.789 164.032 125.81 160.4 123.383 158.331C120.954 156.262 117.367 154.27 115.41 153.905C113.453 153.539 109.389 153.467 106.38 153.744C103.37 154.021 100.236 154.431 99.4156 154.655C98.4302 154.923 97.5983 153.758 96.9663 151.227C96.4405 149.118 94.3887 145.508 92.4084 143.203C90.4282 140.899 86.7663 138.03 84.2718 136.827C80.9843 135.243 77.6905 134.641 72.3071 134.641C65.9877 134.641 63.8424 135.16 57.9394 138.119L51.0006 141.595L47.6048 138.107C45.7371 136.189 42.2645 133.68 39.8878 132.535C37.1861 131.233 33.4065 130.452 29.8046 130.452C25.1752 130.452 22.9225 131.12 18.3415 133.855C15.2066 135.727 10.8464 139.615 8.6537 142.495C6.45995 145.375 3.6289 150.323 2.36271 153.491C0.61591 157.86 0.0459397 161.526 0.00387355 168.676C-0.0445025 176.918 0.327775 178.92 2.97689 184.629C4.87407 188.721 7.85234 192.826 10.9547 195.625C13.6775 198.082 22.9635 205.028 31.5892 211.059C40.2149 217.091 49.0677 223.43 51.2604 225.146C53.4541 226.862 57.4304 231.588 60.0974 235.647C62.7634 239.707 66.3621 244.833 68.0942 247.039C69.8263 249.244 77.4445 256.484 85.0237 263.126C92.603 269.768 104.57 279.527 111.618 284.812C118.666 290.096 129.416 297.377 135.507 300.99C141.597 304.603 150.878 309.415 156.13 311.683C161.383 313.951 169.297 316.75 173.717 317.903C181.302 319.882 185.116 320 241.356 320H300.958L308.726 316.81C313 315.056 319.572 311.943 323.332 309.892C327.091 307.843 333.152 304.052 336.799 301.468C340.446 298.885 346.696 293.52 350.688 289.545C354.679 285.57 359.793 279.604 362.051 276.288C364.31 272.97 367.475 267.665 369.085 264.497C370.694 261.329 373.096 255.562 374.421 251.682C375.747 247.801 377.63 239.87 378.606 234.058C379.945 226.085 380.244 219.846 379.822 208.649C379.403 197.502 378.69 191.985 376.956 186.479C375.687 182.447 373.004 176.009 370.995 172.172C368.984 168.336 364.181 161.283 360.321 156.5C356.462 151.716 348.808 143.865 343.313 139.052C337.818 134.239 328.826 126.871 323.332 122.681C317.837 118.491 307.662 111.3 300.721 106.702C293.78 102.103 284.552 96.4295 280.214 94.0942C275.876 91.7579 262.861 85.7279 251.293 80.6939C239.725 75.6588 216.773 65.285 200.288 57.6392C183.803 49.9944 166.319 41.8072 161.433 39.4468C153.646 35.6841 151.697 35.1678 145.658 35.261C141.868 35.3196 137.286 35.8433 135.477 36.4234ZM178.729 71.2846C195.503 79.1807 222.478 91.495 238.673 98.6486C254.869 105.803 272.429 114.218 277.698 117.348C282.966 120.478 292.555 126.802 299.008 131.402C305.46 136.001 314.401 142.72 318.876 146.331C323.35 149.943 330.007 155.733 333.668 159.199C337.329 162.666 342.596 168.572 345.371 172.325C348.146 176.077 351.362 181.033 352.516 183.337C353.67 185.641 355.361 190.118 356.274 193.285C357.186 196.453 358.251 202.157 358.64 205.958C359.028 209.76 358.787 217.661 358.103 223.516C357.42 229.371 356.164 236.863 355.312 240.166C354.46 243.469 352.138 249.601 350.152 253.795C348.165 257.99 344.34 264.267 341.652 267.746C338.963 271.225 333.785 276.513 330.143 279.495C326.501 282.478 320.925 286.477 317.753 288.383C314.579 290.289 308.266 293.464 303.722 295.439L295.463 299.03L241.828 299.024C199.127 299.02 186.734 298.711 181.033 297.509C177.096 296.677 169.723 294.173 164.65 291.945C159.577 289.715 151.679 285.669 147.097 282.953C142.514 280.237 134.634 275.074 129.583 271.48C124.533 267.886 117.16 262.291 113.2 259.047L105.999 253.148L108.97 244.071C110.604 239.078 112.704 230.839 113.638 225.761L115.333 216.529L122.561 213.212C126.537 211.387 130.24 210.171 130.79 210.509C131.34 210.848 132.279 213.591 132.878 216.604C133.478 219.618 134.442 227.392 135.021 233.877C135.602 240.364 136.522 246.501 137.068 247.516C137.614 248.531 140.585 251.732 143.671 254.63C146.758 257.529 152.122 261.812 155.593 264.149C159.063 266.487 164.742 269.812 168.213 271.537C171.683 273.263 178.309 275.908 182.936 277.413C187.563 278.919 195.551 280.87 200.689 281.749C205.826 282.628 215.929 283.347 223.142 283.347H236.255L239.83 279.786C242.485 277.143 243.406 275.315 243.406 272.689C243.406 270.744 242.634 268.054 241.691 266.714C240.747 265.372 238.409 263.624 236.494 262.827C234.321 261.923 231.311 261.611 228.482 261.996C225.989 262.335 218.981 262.107 212.908 261.488C206.835 260.87 199.255 259.68 196.066 258.843C192.876 258.006 187.67 256.343 184.497 255.147C181.325 253.951 175.89 251.352 172.419 249.371L166.109 245.768L180.307 239.044C188.115 235.345 198.496 230.801 203.376 228.946C208.255 227.091 216.301 224.68 221.254 223.589C226.207 222.499 232.433 221.596 235.087 221.584C237.743 221.571 243.422 222.463 247.707 223.566C251.994 224.669 264.255 229.191 274.956 233.615C286.079 238.214 295.934 241.66 297.967 241.662C300.544 241.666 302.418 240.774 304.785 238.419C307.435 235.779 308.026 234.365 307.934 230.877C307.853 227.83 307.095 225.885 305.323 224.178C303.949 222.854 294.543 218.382 284.42 214.242C274.298 210.1 262.637 205.582 258.507 204.2C254.376 202.818 247.545 201.2 243.327 200.605C237.978 199.85 233.174 199.86 227.451 200.64C222.939 201.256 215.572 202.708 211.081 203.869C206.591 205.028 197.475 208.131 190.823 210.763C184.171 213.394 173.683 218.062 167.518 221.134L156.306 226.721L155.6 221.261C155.211 218.258 154.268 213.327 153.503 210.303C152.204 205.17 152.239 204.805 154.033 204.805C155.09 204.805 159.896 202.808 164.713 200.368C171.48 196.939 175.647 193.785 183.044 186.492C189.151 180.472 193.976 174.588 196.37 170.247C198.433 166.503 200.923 160.658 201.903 157.259C203.06 153.245 203.46 149.443 203.043 146.414C202.69 143.848 201.119 139.403 199.551 136.534C197.983 133.666 192.859 127.699 188.165 123.273C183.469 118.848 175.166 112.205 169.713 108.511C164.26 104.818 156.96 99.6875 153.489 97.1092C150.019 94.532 145.402 90.7494 143.23 88.7031C140.941 86.549 138.396 82.6344 137.183 79.4027C136.029 76.3343 135.086 71.6888 135.086 69.0812C135.086 66.4726 135.589 63.4021 136.205 62.2575C136.82 61.1118 138.831 59.2415 140.674 58.1C142.517 56.9585 144.971 56.2275 146.128 56.4768C147.285 56.725 161.955 63.3885 178.729 71.2846ZM38.9466 164.058C38.6753 165.552 38.1221 171.56 37.7172 177.411C37.3123 183.262 36.8128 188.049 36.6077 188.049C36.4026 188.049 33.7493 186.296 30.7111 184.153C27.6739 182.01 24.8376 179.771 24.4096 179.178C23.9805 178.586 22.8689 176.143 21.9392 173.751C20.3775 169.736 20.3828 168.937 22.0034 163.386C23.075 159.714 25.0153 156.119 26.984 154.159L30.2084 150.948L34.8241 156.147C38.4018 160.175 39.3283 161.956 38.9466 164.058ZM76.2866 163.963L76.906 171.817L71.9107 177.577C69.1637 180.745 65.1706 185.929 63.0368 189.097L59.1572 194.856L59.6947 180.195C59.9902 172.131 60.7274 164.259 61.3331 162.701C61.9378 161.144 64.2273 158.915 66.421 157.749C68.6148 156.583 71.592 155.737 73.038 155.869C75.5252 156.096 75.7008 156.534 76.2866 163.963ZM110.717 177.463C110.934 178.942 108.09 184.78 102.984 193.329C95.351 206.113 94.8041 207.448 93.0457 217.613C92.0225 223.527 90.6238 230.406 89.937 232.896C88.8381 236.886 88.4879 237.259 86.9924 236.037C86.0585 235.275 82.7995 230.808 79.7497 226.11C74.442 217.934 74.2516 217.396 75.3012 213.543C75.9038 211.329 77.8893 206.69 79.7129 203.234C81.6321 199.597 86.5717 193.362 91.442 188.429C96.0692 183.743 101.713 178.665 103.984 177.146C106.254 175.627 108.621 174.55 109.242 174.754C109.864 174.957 110.526 176.176 110.717 177.463Z" fill="#EFD09E"/>
<path d="M322.748 9.64566L322.945 0H344.46L344.658 9.62598H343.574C343.39 8.61548 343.226 7.80183 343.081 7.18504C342.95 6.56824 342.786 5.91863 342.589 5.23622C342.392 4.5538 342.188 4.02231 341.978 3.64173C341.768 3.26115 341.512 2.88058 341.21 2.5C340.908 2.11942 340.559 1.84383 340.165 1.67323C339.784 1.4895 339.338 1.34514 338.826 1.24016C338.313 1.12205 337.722 1.06299 337.052 1.06299C337 1.06299 336.888 1.06955 336.717 1.08268C336.56 1.08268 336.415 1.08268 336.284 1.08268V27.0079L339.338 27.2047V28.0905H328.226V27.2047L331.24 27.0079L331.122 1.10236C330.991 1.10236 330.84 1.10236 330.669 1.10236C330.511 1.08924 330.406 1.08268 330.354 1.08268C329.763 1.08268 329.237 1.11548 328.777 1.1811C328.318 1.24672 327.897 1.37139 327.516 1.55512C327.149 1.73884 326.827 1.93569 326.551 2.14567C326.275 2.35564 326.019 2.65748 325.783 3.05118C325.546 3.44488 325.343 3.82546 325.172 4.19291C325.014 4.56037 324.843 5.06561 324.66 5.70866C324.489 6.33858 324.213 7.65091 323.832 9.64566H322.748Z" fill="#EFD09E"/>
<path d="M347.278 28.0905V27.2047L350.312 27.0079V1.08268L347.278 0.885826V0H355.711L363.926 20.9449H363.966L371.689 0H379.767V0.885826L376.733 1.08268V27.0079L379.767 27.2047V28.0905H368.655V27.2047L371.689 27.0079L371.729 2.93307H371.689L362.331 28.4842H361.602L351.199 2.00787H351.159L351.455 27.0079L354.43 27.2047V28.0905H347.278Z" fill="#EFD09E"/>
</svg>
