<svg width="263" height="197" viewBox="0 0 263 197" fill="none" xmlns="http://www.w3.org/2000/svg">
<path fill-rule="evenodd" clip-rule="evenodd" d="M93.7055 0.846196C92.4543 1.2475 89.8357 2.7716 87.8862 4.23268C85.9368 5.69375 83.3007 8.43191 82.0285 10.3175C80.7556 12.203 79.3291 15.5946 78.8578 17.8547C78.3653 20.219 78.2039 23.7461 78.4788 26.164C78.7414 28.4755 79.5546 32.0989 80.2864 34.217C81.0182 36.3351 82.2809 39.3644 83.0927 40.9487C83.9045 42.5329 86.1543 45.2986 88.0921 47.095C90.0306 48.8915 94.235 52.3316 97.4355 54.7387C100.636 57.1466 105.873 60.8641 109.074 63.0003C112.274 65.1365 117.266 69.1974 120.167 72.0239C124.252 76.0058 125.44 77.6255 125.44 79.2112C125.44 80.3369 124.409 83.1852 123.149 85.5401C121.777 88.1037 118.815 91.7401 115.765 94.605C112.879 97.3164 108.924 100.186 106.634 101.229C104.413 102.243 101.043 103.22 99.1457 103.401C97.2486 103.583 94.9049 103.534 93.9382 103.293C92.3678 102.9 92.1423 102.369 91.8135 98.2928C91.6098 95.7669 90.7653 92.4044 89.9193 90.7535C89.0799 89.115 87.0192 86.6028 85.3403 85.1714C83.6608 83.74 81.1796 82.3623 79.826 82.1095C78.4723 81.8566 75.6616 81.8067 73.5798 81.9986C71.498 82.1899 69.3303 82.4738 68.7629 82.6288C68.0814 82.8143 67.506 82.008 67.0688 80.2572C66.7051 78.7983 65.286 76.3014 63.9163 74.707C62.5466 73.1134 60.0138 71.1286 58.2884 70.297C56.0145 69.201 53.7363 68.7845 50.0128 68.7845C45.6418 68.7845 44.1579 69.1438 40.0751 71.1901L35.2757 73.5951L32.9269 71.1822C31.6351 69.8551 29.2332 68.1202 27.5893 67.3277C25.7206 66.4273 23.1063 65.8869 20.615 65.8869C17.413 65.8869 15.8549 66.3491 12.6863 68.2412C10.5179 69.5357 7.50215 72.2253 5.98552 74.2173C4.46817 76.2094 2.51 79.6321 1.63422 81.8233C0.426008 84.8454 0.0317752 87.3815 0.00267923 92.3269C-0.0307811 98.0285 0.226712 99.4127 2.05903 103.362C3.37126 106.192 5.43124 109.032 7.57707 110.968C9.4603 112.667 15.8832 117.472 21.8494 121.644C27.8155 125.816 33.9387 130.201 35.4553 131.388C36.9727 132.575 39.723 135.844 41.5677 138.652C43.4117 141.46 45.9008 145.006 47.0988 146.532C48.2969 148.057 53.5661 153.065 58.8085 157.66C64.0509 162.254 72.3279 169.004 77.2029 172.66C82.078 176.315 89.5134 181.351 93.7265 183.85C97.9389 186.349 104.358 189.678 107.991 191.247C111.624 192.816 117.098 194.752 120.155 195.55C125.401 196.918 128.039 197 166.939 197H208.164L213.537 194.794C216.493 193.58 221.039 191.427 223.639 190.008C226.24 188.591 230.432 185.968 232.954 184.181C235.477 182.394 239.8 178.683 242.561 175.933C245.322 173.184 248.859 169.058 250.421 166.764C251.983 164.469 254.172 160.799 255.285 158.608C256.398 156.416 258.06 152.427 258.976 149.743C259.894 147.059 261.196 141.573 261.871 137.553C262.797 132.037 263.004 127.722 262.712 119.977C262.422 112.266 261.929 108.45 260.73 104.641C259.852 101.852 257.996 97.3997 256.606 94.7456C255.216 92.0922 251.894 87.2134 249.224 83.9045C246.555 80.5955 241.26 75.1648 237.46 71.8356C233.659 68.5063 227.44 63.4103 223.639 60.512C219.839 57.6138 212.801 52.6395 208 49.4587C203.199 46.2779 196.816 42.3532 193.816 40.7379C190.815 39.1218 181.814 34.9508 173.812 31.4687C165.811 27.9859 149.936 20.8101 138.534 15.5214C127.132 10.2335 115.038 4.57024 111.658 2.93748C106.273 0.334782 104.925 -0.0223372 100.747 0.0421328C98.1258 0.0826981 94.9566 0.444888 93.7055 0.846196ZM123.622 24.9601C135.224 30.422 153.882 38.94 165.084 43.8882C176.286 48.8372 188.432 54.6576 192.076 56.8228C195.719 58.9879 202.352 63.3625 206.815 66.544C211.278 69.7254 217.462 74.3731 220.557 76.8707C223.652 79.3691 228.257 83.3742 230.789 85.7719C233.321 88.1696 236.964 92.2551 238.883 94.8513C240.803 97.4468 243.027 100.875 243.825 102.468C244.623 104.062 245.793 107.159 246.424 109.35C247.056 111.541 247.792 115.486 248.061 118.116C248.329 120.746 248.163 126.211 247.69 130.261C247.217 134.311 246.349 139.493 245.759 141.777C245.17 144.062 243.564 148.304 242.19 151.205C240.816 154.106 238.171 158.448 236.311 160.855C234.451 163.262 230.87 166.919 228.351 168.982C225.832 171.045 221.975 173.812 219.78 175.13C217.585 176.449 213.219 178.645 210.076 180.011L204.363 182.495L167.266 182.491C137.731 182.488 129.159 182.274 125.216 181.442C122.492 180.867 117.392 179.135 113.883 177.594C110.375 176.052 104.912 173.253 101.742 171.374C98.5732 169.495 93.1228 165.924 89.6291 163.438C86.1361 160.952 81.0364 157.082 78.297 154.838L73.3165 150.758L75.3714 144.479C76.5017 141.025 77.9544 135.326 78.6003 131.814L79.7729 125.427L84.7723 123.133C87.5218 121.871 90.083 121.03 90.4634 121.264C90.8438 121.498 91.4934 123.396 91.9081 125.48C92.3227 127.564 92.9897 132.941 93.3905 137.428C93.792 141.914 94.4285 146.16 94.806 146.862C95.1835 147.564 97.2384 149.778 99.3733 151.783C101.508 153.788 105.219 156.75 107.619 158.367C110.02 159.984 113.947 162.284 116.348 163.478C118.748 164.672 123.331 166.501 126.531 167.542C129.732 168.584 135.257 169.933 138.811 170.541C142.364 171.149 149.352 171.647 154.341 171.647H163.411L165.884 169.184C167.72 167.355 168.357 166.091 168.357 164.275C168.357 162.929 167.823 161.068 167.171 160.141C166.518 159.213 164.901 158.004 163.576 157.452C162.073 156.827 159.991 156.611 158.034 156.878C156.31 157.113 151.463 156.955 147.262 156.527C143.062 156.099 137.819 155.276 135.613 154.697C133.407 154.118 129.806 152.968 127.612 152.14C125.417 151.313 121.658 149.515 119.258 148.145L114.893 145.653L124.713 141.002C130.114 138.443 137.294 135.3 140.669 134.016C144.044 132.734 149.609 131.066 153.035 130.311C156.461 129.557 160.767 128.933 162.603 128.924C164.44 128.915 168.368 129.533 171.332 130.295C174.297 131.058 182.778 134.186 190.179 137.246C197.873 140.427 204.689 142.811 206.095 142.813C207.878 142.816 209.174 142.198 210.811 140.569C212.644 138.743 213.053 137.765 212.989 135.352C212.933 133.245 212.409 131.899 211.183 130.718C210.233 129.803 203.727 126.71 196.726 123.845C189.724 120.98 181.659 117.855 178.802 116.899C175.944 115.944 171.22 114.825 168.302 114.413C164.603 113.89 161.28 113.897 157.322 114.437C154.2 114.863 149.105 115.868 145.999 116.67C142.893 117.472 136.588 119.619 131.987 121.439C127.386 123.259 120.132 126.488 115.867 128.613L108.112 132.478L107.624 128.701C107.355 126.623 106.703 123.213 106.174 121.121C105.275 117.571 105.299 117.318 106.54 117.318C107.271 117.318 110.596 115.937 113.927 114.249C118.608 111.877 121.49 109.695 126.606 104.651C130.83 100.486 134.168 96.4167 135.823 93.4134C137.25 90.8238 138.973 86.781 139.651 84.4297C140.451 81.6531 140.727 79.0236 140.439 76.9279C140.195 75.1532 139.108 72.0782 138.024 70.0941C136.939 68.1101 133.395 63.9825 130.148 60.9213C126.9 57.8601 121.157 53.2653 117.386 50.7104C113.614 48.1555 108.565 44.6068 106.164 42.8234C103.764 41.0407 100.571 38.4242 99.0678 37.0088C97.485 35.5187 95.7247 32.811 94.8853 30.5755C94.0873 28.4531 93.4349 25.2397 93.4349 23.436C93.4349 21.6316 93.7833 19.5077 94.2088 18.716C94.6343 17.9235 96.0251 16.6297 97.3003 15.8402C98.5747 15.0506 100.272 14.545 101.073 14.7174C101.873 14.8891 112.02 19.4983 123.622 24.9601ZM26.9382 89.1331C26.7506 90.166 26.368 94.3218 26.0879 98.3689C25.8079 102.417 25.4623 105.728 25.3205 105.728C25.1787 105.728 23.3434 104.515 21.242 103.032C19.1413 101.55 17.1795 100.002 16.8834 99.5917C16.5866 99.1817 15.8178 97.4924 15.1748 95.8372C14.0946 93.0607 14.0982 92.508 15.2191 88.668C15.9604 86.1276 17.3024 83.6415 18.6641 82.2855L20.8943 80.0645L24.0868 83.6604C26.5614 86.4471 27.2023 87.6785 26.9382 89.1331ZM52.7653 89.0671L53.1937 94.5L49.7386 98.4841C47.8386 100.675 45.0767 104.261 43.6008 106.452L40.9174 110.436L41.2891 100.295C41.4935 94.7173 42.0034 89.2721 42.4224 88.1943C42.8406 87.1171 44.4242 85.5756 45.9415 84.7687C47.4589 83.9624 49.5181 83.3771 50.5183 83.4684C52.2386 83.6256 52.3601 83.9284 52.7653 89.0671ZM76.5796 98.4051C76.7301 99.428 74.7625 103.466 71.231 109.38C65.9516 118.223 65.5733 119.146 64.3571 126.177C63.6493 130.268 62.6819 135.026 62.2069 136.749C61.4468 139.509 61.2045 139.767 60.1702 138.922C59.5242 138.395 57.2701 135.304 55.1606 132.055C51.4894 126.4 51.3577 126.027 52.0837 123.362C52.5005 121.831 53.8738 118.622 55.1351 116.231C56.4626 113.716 59.8792 109.403 63.2478 105.991C66.4484 102.749 70.3523 99.2367 71.9228 98.1856C73.4932 97.1353 75.1299 96.3899 75.5598 96.5312C75.9896 96.6717 76.4479 97.5149 76.5796 98.4051Z" fill="#EFD09E"/>
<path d="M223.562 6.67204L223.698 0H238.579L238.716 6.65842H237.966C237.839 5.95944 237.725 5.39663 237.625 4.96999C237.535 4.54334 237.421 4.094 237.285 3.62196C237.148 3.14993 237.008 2.78228 236.862 2.51903C236.717 2.25578 236.54 1.99253 236.331 1.72928C236.122 1.46603 235.881 1.2754 235.609 1.15739C235.345 1.03031 235.036 0.930454 234.682 0.857833C234.328 0.776135 233.919 0.735286 233.455 0.735286C233.419 0.735286 233.342 0.739824 233.224 0.748902C233.115 0.748902 233.015 0.748902 232.924 0.748902V18.6817L235.036 18.8179V19.4306H227.35V18.8179L229.435 18.6817L229.353 0.762518C229.263 0.762518 229.158 0.762518 229.04 0.762518C228.931 0.753441 228.858 0.748902 228.822 0.748902C228.413 0.748902 228.05 0.771596 227.732 0.816984C227.414 0.862372 227.123 0.948609 226.86 1.0757C226.605 1.20278 226.383 1.33895 226.192 1.48419C226.001 1.62943 225.824 1.83821 225.66 2.11054C225.497 2.38287 225.356 2.64612 225.238 2.90029C225.129 3.15447 225.011 3.50395 224.884 3.94876C224.766 4.38448 224.575 5.29224 224.311 6.67204H223.562Z" fill="#EFD09E"/>
<path d="M240.528 19.4306V18.8179L242.627 18.6817V0.748902L240.528 0.612738V0H246.361L252.043 14.4879H252.071L257.413 0H263V0.612738L260.901 0.748902V18.6817L263 18.8179V19.4306H255.314V18.8179L257.413 18.6817L257.44 2.02884H257.413L250.94 19.7029H250.435L243.24 1.38887H243.213L243.417 18.6817L245.475 18.8179V19.4306H240.528Z" fill="#EFD09E"/>
</svg>
