<svg width="1336" height="320" viewBox="0 0 1336 320" fill="none" xmlns="http://www.w3.org/2000/svg">
<path d="M0 320V309.909L34.375 307.666V12.3336L0 10.0911V0H118.973C135.491 0 150.372 1.42023 163.616 4.26069C177.009 7.10114 188.914 11.5861 199.33 17.7155C209.896 23.8449 218.006 32.142 223.661 42.6069C229.464 52.9222 232.366 65.181 232.366 79.3833C232.366 104.947 223.81 124.905 206.697 139.257C189.583 153.459 166.444 162.654 137.277 166.839V167.288C149.777 167.437 160.566 169.456 169.643 173.343C178.869 177.23 186.161 182.238 191.518 188.367C197.024 194.347 202.232 202.121 207.143 211.689C210.417 218.267 215.03 228.358 220.982 241.962C227.083 255.417 233.11 267.377 239.063 277.842C243.825 286.363 248.81 292.941 254.018 297.575C259.226 302.21 263.616 305.05 267.188 306.097C270.759 307.143 274.851 307.666 279.464 307.666V320H242.411C231.101 320 222.173 319.327 215.625 317.982C209.077 316.487 202.53 313.048 195.982 307.666C189.583 302.284 183.854 294.884 178.795 285.466C173.735 275.898 165.104 256.015 152.902 225.816C151.116 221.331 148.512 215.576 145.089 208.549C141.816 201.373 138.914 195.992 136.384 192.404C134.003 188.666 131.101 184.779 127.679 180.743C124.405 176.706 120.982 173.866 117.411 172.221C113.988 170.427 110.342 169.53 106.473 169.53C99.9257 169.53 94.9405 169.605 91.5179 169.755V307.666L125.893 309.909V320H0ZM91.5179 156.973C93.1548 157.122 96.2054 157.197 100.67 157.197C127.158 157.197 145.759 150.768 156.473 137.912C167.336 124.905 172.768 105.545 172.768 79.8318C172.768 66.975 171.205 56.0617 168.08 47.0918C165.104 38.1219 160.789 31.1703 155.134 26.2369C149.479 21.3034 143.229 17.7902 136.384 15.6973C129.539 13.6043 121.726 12.5578 112.946 12.5578C107.143 12.5578 100 13.1558 91.5179 14.3518V156.973Z" fill="#EFD09E"/>
<path fill-rule="evenodd" clip-rule="evenodd" d="M336.843 66.2263C338.873 66.1695 340.807 67.0877 342.046 68.6963L363.455 96.4909C364.818 98.2604 365.15 100.616 364.329 102.694L346.489 147.86C345.601 150.107 343.515 151.655 341.107 151.852C338.7 152.049 336.389 150.862 335.148 148.79L310.171 107.098C308.897 104.972 308.978 102.298 310.378 100.252L331.787 68.9836C332.934 67.3082 334.814 66.2831 336.843 66.2263ZM337.323 83.3561L323.144 104.065L339.417 131.229L351.207 101.381L337.323 83.3561Z" fill="#EFD09E"/>
<path fill-rule="evenodd" clip-rule="evenodd" d="M402.418 94.911C400.984 95.3715 397.982 97.1204 395.747 98.797C393.512 100.474 390.49 103.616 389.032 105.779C387.573 107.943 385.937 111.835 385.397 114.428C384.833 117.142 384.647 121.189 384.963 123.964C385.264 126.616 386.196 130.774 387.035 133.204C387.874 135.635 389.321 139.111 390.252 140.929C391.183 142.747 393.762 145.921 395.983 147.982C398.206 150.044 403.025 153.991 406.694 156.753C410.363 159.516 416.367 163.782 420.036 166.234C423.705 168.685 429.428 173.345 432.753 176.588C437.436 181.158 438.799 183.016 438.799 184.836C438.799 186.128 437.616 189.396 436.172 192.098C434.598 195.04 431.203 199.213 427.707 202.5C424.398 205.612 419.865 208.904 417.24 210.102C414.693 211.265 410.83 212.386 408.655 212.594C406.48 212.803 403.793 212.746 402.685 212.469C400.885 212.019 400.626 211.41 400.249 206.732C400.016 203.834 399.048 199.975 398.078 198.081C397.116 196.201 394.753 193.318 392.829 191.675C390.903 190.033 388.059 188.452 386.507 188.162C384.955 187.872 381.733 187.814 379.347 188.034C376.96 188.254 374.475 188.58 373.825 188.758C373.043 188.97 372.384 188.045 371.882 186.036C371.466 184.362 369.839 181.497 368.268 179.667C366.698 177.839 363.795 175.561 361.817 174.607C359.21 173.349 356.598 172.871 352.33 172.871C347.319 172.871 345.618 173.283 340.937 175.632L335.435 178.391L332.743 175.622C331.262 174.1 328.508 172.109 326.624 171.199C324.482 170.166 321.485 169.546 318.629 169.546C314.958 169.546 313.172 170.076 309.539 172.248C307.054 173.733 303.596 176.819 301.858 179.105C300.118 181.391 297.873 185.319 296.869 187.833C295.484 191.301 295.032 194.211 294.999 199.886C294.961 206.429 295.256 208.017 297.356 212.549C298.861 215.797 301.222 219.055 303.682 221.277C305.841 223.227 313.204 228.741 320.044 233.528C326.883 238.316 333.903 243.347 335.641 244.71C337.381 246.071 340.534 249.823 342.648 253.045C344.762 256.267 347.616 260.336 348.989 262.087C350.363 263.837 356.403 269.584 362.413 274.856C368.423 280.128 377.911 287.874 383.5 292.07C389.089 296.264 397.613 302.043 402.442 304.91C407.271 307.778 414.63 311.598 418.795 313.398C422.96 315.199 429.235 317.421 432.74 318.336C438.754 319.906 441.778 320 486.372 320H533.631L539.791 317.468C543.18 316.076 548.391 313.604 551.372 311.977C554.353 310.35 559.159 307.341 562.051 305.29C564.943 303.24 569.898 298.981 573.064 295.826C576.228 292.671 580.284 287.936 582.074 285.303C583.865 282.67 586.374 278.459 587.651 275.944C588.927 273.43 590.831 268.852 591.882 265.773C592.933 262.692 594.427 256.397 595.201 251.784C596.262 245.455 596.499 240.503 596.165 231.615C595.832 222.767 595.267 218.388 593.892 214.017C592.886 210.817 590.759 205.707 589.165 202.662C587.571 199.617 583.762 194.019 580.702 190.221C577.642 186.424 571.573 180.193 567.216 176.372C562.859 172.552 555.729 166.704 551.372 163.378C547.015 160.053 538.947 154.344 533.444 150.694C527.94 147.044 520.623 142.541 517.183 140.687C513.743 138.833 503.424 134.046 494.252 130.051C485.079 126.054 466.879 117.82 453.808 111.751C440.737 105.683 426.873 99.1844 422.999 97.3108C416.825 94.3241 415.28 93.9143 410.491 93.9883C407.486 94.0349 403.853 94.4505 402.418 94.911ZM436.714 122.582C450.014 128.85 471.403 138.624 484.245 144.302C497.087 149.981 511.011 156.66 515.189 159.145C519.365 161.629 526.969 166.649 532.085 170.3C537.201 173.951 544.291 179.284 547.839 182.15C551.387 185.017 556.666 189.613 559.568 192.364C562.471 195.116 566.647 199.804 568.848 202.783C571.048 205.761 573.598 209.695 574.513 211.524C575.428 213.352 576.769 216.906 577.493 219.42C578.216 221.935 579.06 226.462 579.369 229.479C579.676 232.497 579.485 238.768 578.943 243.416C578.401 248.063 577.406 254.01 576.73 256.631C576.055 259.253 574.214 264.121 572.639 267.45C571.063 270.779 568.031 275.762 565.899 278.524C563.767 281.285 559.661 285.482 556.773 287.849C553.885 290.217 549.464 293.391 546.948 294.904C544.432 296.417 539.426 298.937 535.824 300.505L529.274 303.355L486.747 303.35C452.888 303.347 443.061 303.102 438.541 302.147C435.419 301.487 429.573 299.5 425.55 297.731C421.528 295.961 415.265 292.75 411.632 290.594C407.999 288.438 401.75 284.34 397.745 281.487C393.741 278.634 387.895 274.194 384.754 271.619L379.045 266.936L381.4 259.731C382.696 255.768 384.361 249.228 385.102 245.198L386.446 237.87L392.177 235.237C395.329 233.788 398.266 232.823 398.702 233.092C399.138 233.36 399.882 235.538 400.358 237.929C400.833 240.322 401.598 246.492 402.057 251.64C402.518 256.789 403.247 261.66 403.68 262.466C404.113 263.271 406.468 265.812 408.916 268.112C411.363 270.413 415.617 273.813 418.369 275.668C421.12 277.524 425.623 280.163 428.375 281.533C431.127 282.903 436.38 285.002 440.049 286.197C443.719 287.392 450.053 288.941 454.126 289.638C458.2 290.336 466.211 290.907 471.929 290.907H482.327L485.162 288.08C487.267 285.982 487.997 284.531 487.997 282.447C487.997 280.903 487.385 278.768 486.637 277.704C485.889 276.639 484.036 275.251 482.517 274.619C480.794 273.901 478.407 273.654 476.164 273.959C474.188 274.229 468.631 274.048 463.815 273.556C458.999 273.066 452.99 272.121 450.46 271.457C447.931 270.792 443.804 269.472 441.288 268.523C438.772 267.574 434.462 265.511 431.711 263.938L426.707 261.079L437.965 255.741C444.156 252.805 452.388 249.199 456.257 247.726C460.126 246.253 466.505 244.34 470.433 243.474C474.36 242.608 479.297 241.892 481.401 241.882C483.507 241.872 488.01 242.58 491.408 243.456C494.807 244.331 504.529 247.92 513.014 251.432C521.834 255.082 529.648 257.818 531.26 257.819C533.304 257.823 534.79 257.114 536.666 255.245C538.767 253.149 539.236 252.027 539.163 249.258C539.099 246.84 538.498 245.296 537.093 243.941C536.003 242.89 528.545 239.341 520.519 236.054C512.493 232.767 503.247 229.181 499.971 228.083C496.696 226.987 491.28 225.703 487.935 225.23C483.694 224.63 479.885 224.639 475.347 225.258C471.769 225.747 465.927 226.9 462.367 227.821C458.806 228.741 451.578 231.204 446.304 233.293C441.029 235.382 432.713 239.087 427.824 241.525L418.934 245.96L418.375 241.626C418.066 239.242 417.318 235.329 416.712 232.928C415.682 228.854 415.709 228.564 417.132 228.564C417.97 228.564 421.781 226.979 425.6 225.042C430.966 222.32 434.27 219.817 440.135 214.028C444.978 209.249 448.804 204.579 450.701 201.133C452.337 198.161 454.312 193.522 455.089 190.824C456.007 187.638 456.323 184.621 455.993 182.216C455.713 180.179 454.467 176.651 453.224 174.374C451.981 172.097 447.918 167.361 444.195 163.848C440.472 160.335 433.889 155.063 429.565 152.131C425.241 149.199 419.453 145.127 416.701 143.08C413.949 141.035 410.288 138.032 408.566 136.408C406.751 134.698 404.733 131.591 403.771 129.026C402.856 126.59 402.108 122.903 402.108 120.833C402.108 118.762 402.507 116.325 402.995 115.417C403.483 114.507 405.078 113.023 406.539 112.117C408 111.211 409.947 110.631 410.864 110.828C411.781 111.025 423.414 116.314 436.714 122.582ZM325.877 196.221C325.662 197.407 325.224 202.175 324.903 206.82C324.582 211.465 324.186 215.264 324.023 215.264C323.86 215.264 321.756 213.873 319.347 212.171C316.939 210.47 314.69 208.693 314.351 208.223C314.011 207.752 313.129 205.814 312.392 203.914C311.154 200.728 311.158 200.094 312.443 195.688C313.293 192.773 314.831 189.92 316.392 188.364L318.949 185.815L322.609 189.941C325.446 193.139 326.18 194.552 325.877 196.221ZM355.485 196.146L355.976 202.38L352.015 206.952C349.837 209.466 346.671 213.581 344.979 216.095L341.903 220.667L342.329 209.03C342.563 202.629 343.148 196.381 343.628 195.144C344.108 193.908 345.923 192.139 347.663 191.213C349.402 190.288 351.763 189.616 352.909 189.721C354.881 189.901 355.021 190.249 355.485 196.146ZM382.785 206.861C382.958 208.035 380.702 212.669 376.654 219.455C370.602 229.602 370.168 230.662 368.774 238.73C367.962 243.425 366.853 248.884 366.309 250.861C365.437 254.028 365.16 254.324 363.974 253.355C363.234 252.75 360.649 249.203 358.231 245.475C354.023 238.985 353.872 238.558 354.704 235.5C355.182 233.743 356.756 230.06 358.202 227.317C359.724 224.43 363.64 219.481 367.502 215.566C371.171 211.846 375.647 207.815 377.447 206.609C379.247 205.404 381.124 204.549 381.616 204.711C382.109 204.872 382.635 205.84 382.785 206.861Z" fill="#EFD09E"/>
<path d="M628.003 97.2275L674.91 92.3095L706.555 84.0385L710.595 90.5212L709.697 120.699H710.595C728.4 94.7685 751.442 81.803 779.721 81.803C785.107 81.803 790.269 82.2501 795.207 83.1443C800.144 84.0385 805.606 86.0503 811.591 89.1799C817.576 92.3095 822.738 96.4078 827.077 101.475C831.416 106.542 835.081 113.77 838.074 123.158C841.066 132.547 842.563 143.501 842.563 156.019V301.545L865.455 303.781V320H764.459V303.781L787.352 301.545V149.536C787.352 117.793 777.103 101.922 756.604 101.922C743.138 101.922 732.066 108.032 723.388 120.252C714.859 132.473 710.595 148.493 710.595 168.314V301.545L733.712 303.781V320H632.492V303.781L655.609 301.545V105.946L628.452 106.393L628.003 97.2275Z" fill="#EFD09E"/>
<path d="M897.152 201.075C897.152 189.451 898.275 178.125 900.519 167.097C902.763 155.92 906.429 145.19 911.516 134.907C916.603 124.624 922.813 115.608 930.144 107.858C937.476 100.109 946.528 93.924 957.301 89.3041C968.223 84.5352 980.268 82.1508 993.435 82.1508C1005.85 82.1508 1017 83.9391 1026.88 87.5158C1036.75 90.9435 1044.98 95.7869 1051.56 102.046C1058.15 108.305 1063.61 115.98 1067.95 125.071C1072.29 134.013 1075.35 143.774 1077.15 154.355C1079.09 164.787 1080.07 176.262 1080.07 188.781L1074.01 194.369H954.608V208.005C954.608 272.982 973.161 305.47 1010.27 305.47C1036.6 305.47 1057.62 292.355 1073.33 266.126L1082.09 271.491C1062.79 303.83 1035.33 320 999.719 320C965.306 320 939.571 309.419 922.514 288.257C905.606 267.095 897.152 238.034 897.152 201.075ZM954.608 184.31L1027.1 181.404C1027.55 173.803 1027.77 166.501 1027.77 159.496C1027.77 137.887 1025.15 121.271 1019.92 109.647C1014.83 98.0223 1006.3 92.2102 994.332 92.2102C987.151 92.2102 980.941 94.5947 975.704 99.3636C970.617 103.983 966.652 110.69 963.809 119.482C960.967 128.275 958.797 137.887 957.301 148.319C955.954 158.602 955.057 170.599 954.608 184.31Z" fill="#EFD09E"/>
<path d="M1188.3 309.493C1205.35 309.493 1217.92 306.364 1226 300.105C1234.23 293.845 1238.35 286.022 1238.35 276.633C1238.35 271.715 1237.52 267.393 1235.88 263.667C1234.38 259.793 1231.84 256.141 1228.25 252.714C1224.8 249.137 1220.17 245.56 1214.33 241.984C1208.64 238.258 1201.54 234.085 1193.01 229.465C1185.53 225.143 1177.6 220.673 1169.22 216.053C1160.84 211.284 1153.06 205.844 1145.88 199.734C1138.85 193.475 1132.94 186.247 1128.15 178.051C1123.51 169.854 1121.19 160.018 1121.19 148.543C1121.19 138.409 1123.14 129.244 1127.03 121.047C1130.92 112.851 1136.3 105.921 1143.18 100.258C1150.22 94.4456 1158.52 89.9748 1168.1 86.8452C1177.82 83.7156 1188.45 82.1508 1199.97 82.1508C1208.64 82.1508 1217.32 83.2685 1226 85.5039C1234.83 87.5903 1242.76 90.7944 1249.79 95.1163C1256.82 99.4381 1262.51 104.803 1266.85 111.211C1271.19 117.62 1273.36 125.071 1273.36 133.566C1273.36 136.844 1272.76 140.048 1271.56 143.178C1270.51 146.307 1268.87 149.139 1266.62 151.673C1264.38 154.206 1261.61 156.292 1258.32 157.932C1255.18 159.422 1251.51 160.167 1247.32 160.167C1238.64 160.167 1232.14 157.783 1227.8 153.014C1223.46 148.245 1221.29 142.433 1221.29 135.577C1221.29 131.256 1221.89 127.604 1223.08 124.624C1224.28 121.494 1225.85 118.961 1227.8 117.023C1229.89 114.937 1232.21 113.447 1234.75 112.553C1237.45 111.509 1240.14 110.988 1242.83 110.988H1244.85V110.541C1243.36 108.156 1241.19 105.921 1238.35 103.834C1235.5 101.599 1232.14 99.6616 1228.25 98.0223C1224.36 96.234 1220.02 94.8182 1215.23 93.775C1210.44 92.7318 1205.35 92.2102 1199.97 92.2102C1192.04 92.2102 1185.3 93.2534 1179.77 95.3398C1174.23 97.4262 1169.67 100.109 1166.08 103.387C1162.64 106.517 1160.09 110.019 1158.45 113.894C1156.8 117.769 1155.98 121.494 1155.98 125.071C1155.98 129.393 1156.65 133.118 1158 136.248C1159.34 139.378 1161.66 142.582 1164.95 145.86C1168.4 148.99 1173.03 152.418 1178.87 156.143C1184.85 159.869 1192.34 164.34 1201.31 169.556C1209.99 174.027 1219.12 178.796 1228.69 183.863C1238.42 188.93 1247.32 194.816 1255.4 201.522C1263.48 208.08 1270.14 215.68 1275.38 224.324C1280.76 232.818 1283.46 242.803 1283.46 254.279C1283.46 263.965 1281.59 272.833 1277.85 280.88C1274.25 288.928 1268.57 295.857 1260.79 301.669C1253.16 307.482 1243.36 311.952 1231.39 315.082C1219.57 318.361 1205.5 320 1189.19 320C1181.41 320 1173.11 319.031 1164.28 317.094C1155.45 315.157 1147.3 312.101 1139.82 307.929C1132.34 303.607 1126.13 298.093 1121.19 291.387C1116.25 284.531 1113.78 276.186 1113.78 266.35C1113.78 262.177 1114.46 258.153 1115.8 254.279C1117.15 250.404 1119.02 246.976 1121.41 243.996C1123.96 240.866 1127.03 238.407 1130.62 236.619C1134.21 234.83 1138.32 233.936 1142.96 233.936C1147 233.936 1150.59 234.681 1153.73 236.172C1156.88 237.513 1159.49 239.376 1161.59 241.76C1163.83 243.996 1165.55 246.678 1166.75 249.808C1167.95 252.937 1168.62 256.29 1168.77 259.867C1168.77 264.04 1168.02 267.766 1166.53 271.044C1165.03 274.174 1163.08 276.782 1160.69 278.868C1158.3 280.955 1155.53 282.594 1152.39 283.786C1149.39 284.829 1146.4 285.351 1143.41 285.351C1142.81 285.351 1142.14 285.351 1141.39 285.351C1140.79 285.351 1140.19 285.276 1139.59 285.127V285.574C1140.94 288.555 1142.96 291.461 1145.65 294.293C1148.35 297.124 1151.71 299.658 1155.75 301.893C1159.94 304.128 1164.73 305.991 1170.12 307.482C1175.65 308.823 1181.71 309.493 1188.3 309.493Z" fill="#EFD09E"/>
<path d="M1290.79 73.6562L1290.94 66H1308L1308.16 73.6406H1307.3C1307.16 72.8385 1307.03 72.1927 1306.91 71.7031C1306.81 71.2135 1306.68 70.6979 1306.52 70.1562C1306.36 69.6146 1306.2 69.1927 1306.04 68.8906C1305.87 68.5885 1305.67 68.2864 1305.43 67.9844C1305.19 67.6823 1304.91 67.4635 1304.6 67.3281C1304.3 67.1823 1303.94 67.0677 1303.54 66.9844C1303.13 66.8906 1302.66 66.8437 1302.13 66.8437C1302.09 66.8437 1302 66.8489 1301.86 66.8594C1301.74 66.8594 1301.63 66.8594 1301.52 66.8594V87.4375L1303.94 87.5937V88.2969H1295.13V87.5937L1297.52 87.4375L1297.43 66.875C1297.32 66.875 1297.2 66.875 1297.07 66.875C1296.94 66.8646 1296.86 66.8594 1296.82 66.8594C1296.35 66.8594 1295.93 66.8854 1295.57 66.9375C1295.2 66.9896 1294.87 67.0885 1294.57 67.2344C1294.28 67.3802 1294.02 67.5364 1293.8 67.7031C1293.59 67.8698 1293.38 68.1094 1293.19 68.4219C1293.01 68.7344 1292.85 69.0364 1292.71 69.3281C1292.59 69.6198 1292.45 70.0208 1292.3 70.5312C1292.17 71.0312 1291.95 72.0729 1291.65 73.6562H1290.79Z" fill="#EFD09E"/>
<path d="M1310.24 88.2969V87.5937L1312.64 87.4375V66.8594L1310.24 66.7031V66H1316.92L1323.44 82.625H1323.47L1329.59 66H1336V66.7031L1333.59 66.8594V87.4375L1336 87.5937V88.2969H1327.19V87.5937L1329.59 87.4375L1329.63 68.3281H1329.59L1322.17 88.6094H1321.6L1313.35 67.5937H1313.32L1313.55 87.4375L1315.91 87.5937V88.2969H1310.24Z" fill="#EFD09E"/>
</svg>
