<svg width="114" height="124" viewBox="0 0 114 124" fill="none" xmlns="http://www.w3.org/2000/svg">
<path fill-rule="evenodd" clip-rule="evenodd" d="M39.8047 0.326595C42.7344 0.244537 45.5262 1.57046 47.3148 3.8933L78.219 44.0283C80.1865 46.5834 80.666 49.9855 79.4814 52.9854L53.728 118.205C52.4468 121.449 49.435 123.684 45.9598 123.969C42.4845 124.254 39.1492 122.54 37.357 119.547L1.30209 59.3448C-0.53684 56.2743 -0.419839 52.4134 1.60165 49.4599L32.5058 4.3081C34.1617 1.88877 36.8751 0.408654 39.8047 0.326595ZM40.4969 25.0618L20.029 54.9659L43.5199 94.1897L60.5389 51.0901L40.4969 25.0618Z" fill="#EFD09E"/>
<path d="M80.2732 5.71325L80.3898 0H93.116L93.2325 5.70159H92.5916C92.4828 5.10306 92.3857 4.62112 92.3002 4.25579C92.2225 3.89045 92.1254 3.50568 92.0089 3.10148C91.8923 2.69728 91.7719 2.38246 91.6476 2.15704C91.5233 1.93162 91.3718 1.7062 91.1931 1.48078C91.0144 1.25536 90.8085 1.09212 90.5754 0.991074C90.3501 0.88225 90.0859 0.796746 89.7829 0.73456C89.4799 0.664602 89.1303 0.629623 88.7341 0.629623C88.703 0.629623 88.637 0.63351 88.536 0.641283C88.4427 0.641283 88.3573 0.641283 88.2796 0.641283V15.9971L90.0859 16.1137V16.6384H83.5131V16.1137L85.2961 15.9971L85.2262 0.652943C85.1485 0.652943 85.0592 0.652943 84.9582 0.652943C84.8649 0.645169 84.8028 0.641283 84.7717 0.641283C84.4221 0.641283 84.1113 0.660716 83.8394 0.699581C83.5675 0.738447 83.3188 0.812292 83.0935 0.921116C82.876 1.02994 82.6856 1.14654 82.5225 1.27091C82.3593 1.39528 82.2078 1.57406 82.068 1.80725C81.9281 2.04045 81.8077 2.26587 81.7067 2.48351C81.6135 2.70116 81.5125 3.00043 81.4037 3.38131C81.3027 3.75442 81.1395 4.53173 80.9142 5.71325H80.2732Z" fill="#EFD09E"/>
<path d="M94.7825 16.6384V16.1137L96.5772 15.9971V0.641283L94.7825 0.524686V0H99.7704L104.63 12.4059H104.653L109.222 0H114V0.524686L112.205 0.641283V15.9971L114 16.1137V16.6384H107.427V16.1137L109.222 15.9971L109.245 1.73729H109.222L103.686 16.8716H103.255L97.1017 1.18929H97.0784L97.2532 15.9971L99.0129 16.1137V16.6384H94.7825Z" fill="#EFD09E"/>
</svg>
