<svg width="152" height="349" viewBox="0 0 152 349" fill="none" xmlns="http://www.w3.org/2000/svg">
<g clip-path="url(#clip0_151_259)">
<circle cx="141" cy="22" r="5" transform="rotate(90 141 22)" fill="#FFC977"/>
<circle cx="114.667" cy="22" r="4.5" transform="rotate(90 114.667 22)" fill="#FFC977"/>
<circle cx="88.3334" cy="22" r="4" transform="rotate(90 88.3334 22)" fill="#FFC977"/>
<circle cx="62" cy="22" r="3.5" transform="rotate(90 62 22)" fill="#FFC977"/>
<circle cx="35.6666" cy="22" r="3" transform="rotate(90 35.6666 22)" fill="#FFC977"/>
<circle cx="9.33337" cy="22" r="2.5" transform="rotate(90 9.33337 22)" fill="#FFC977"/>
<circle cx="139.364" cy="339.455" r="2.54545" transform="rotate(90 139.364 339.455)" fill="#FFC977"/>
<circle cx="139.545" cy="304.181" r="2.81818" transform="rotate(90 139.545 304.181)" fill="#FFC977"/>
<circle cx="139.727" cy="268.909" r="3.09091" transform="rotate(90 139.727 268.909)" fill="#FFC977"/>
<circle cx="139.909" cy="233.636" r="3.36364" transform="rotate(90 139.909 233.636)" fill="#FFC977"/>
<circle cx="140.091" cy="198.364" r="3.63636" transform="rotate(90 140.091 198.364)" fill="#FFC977"/>
<circle cx="140.273" cy="163.091" r="3.90909" transform="rotate(90 140.273 163.091)" fill="#FFC977"/>
<circle cx="140.455" cy="127.819" r="4.18182" transform="rotate(90 140.455 127.819)" fill="#FFC977"/>
<circle cx="140.636" cy="92.5454" r="4.45455" transform="rotate(90 140.636 92.5454)" fill="#FFC977"/>
<circle cx="140.818" cy="57.2732" r="4.72727" transform="rotate(90 140.818 57.2732)" fill="#FFC977"/>
<circle cx="114.485" cy="57.2723" r="4.31818" transform="rotate(90 114.485 57.2723)" fill="#FFC977"/>
<circle cx="114.303" cy="92.5455" r="4.13636" transform="rotate(90 114.303 92.5455)" fill="#FFC977"/>
<circle cx="114.121" cy="127.818" r="3.95455" transform="rotate(90 114.121 127.818)" fill="#FFC977"/>
<circle cx="113.939" cy="163.091" r="3.77273" transform="rotate(90 113.939 163.091)" fill="#FFC977"/>
<circle cx="113.758" cy="198.363" r="3.59091" transform="rotate(90 113.758 198.363)" fill="#FFC977"/>
<circle cx="113.576" cy="233.637" r="3.40909" transform="rotate(90 113.576 233.637)" fill="#FFC977"/>
<circle cx="113.394" cy="268.909" r="3.22727" transform="rotate(90 113.394 268.909)" fill="#FFC977"/>
<circle cx="113.212" cy="304.182" r="3.04545" transform="rotate(90 113.212 304.182)" fill="#FFC977"/>
<circle cx="113.03" cy="339.454" r="2.86364" transform="rotate(90 113.03 339.454)" fill="#FFC977"/>
<circle cx="88.1515" cy="57.2724" r="3.90909" transform="rotate(90 88.1515 57.2724)" fill="#FFC977"/>
<circle cx="87.9697" cy="92.5457" r="3.81818" transform="rotate(90 87.9697 92.5457)" fill="#FFC977"/>
<circle cx="87.7879" cy="127.818" r="3.72727" transform="rotate(90 87.7879 127.818)" fill="#FFC977"/>
<circle cx="87.6061" cy="163.09" r="3.63636" transform="rotate(90 87.6061 163.09)" fill="#FFC977"/>
<circle cx="87.4243" cy="198.364" r="3.54545" transform="rotate(90 87.4243 198.364)" fill="#FFC977"/>
<circle cx="87.2425" cy="233.636" r="3.45455" transform="rotate(90 87.2425 233.636)" fill="#FFC977"/>
<circle cx="87.0606" cy="268.91" r="3.36364" transform="rotate(90 87.0606 268.91)" fill="#FFC977"/>
<circle cx="86.8788" cy="304.182" r="3.27273" transform="rotate(90 86.8788 304.182)" fill="#FFC977"/>
<circle cx="86.697" cy="339.454" r="3.18182" transform="rotate(90 86.697 339.454)" fill="#FFC977"/>
<circle cx="61.8182" cy="57.2725" r="3.5" transform="rotate(90 61.8182 57.2725)" fill="#FFC977"/>
<circle cx="61.6364" cy="92.5459" r="3.5" transform="rotate(90 61.6364 92.5459)" fill="#FFC977"/>
<circle cx="61.4546" cy="127.818" r="3.5" transform="rotate(90 61.4546 127.818)" fill="#FFC977"/>
<circle cx="61.2727" cy="163.091" r="3.5" transform="rotate(90 61.2727 163.091)" fill="#FFC977"/>
<circle cx="61.0909" cy="198.363" r="3.5" transform="rotate(90 61.0909 198.363)" fill="#FFC977"/>
<circle cx="60.9091" cy="233.637" r="3.5" transform="rotate(90 60.9091 233.637)" fill="#FFC977"/>
<circle cx="60.7273" cy="268.909" r="3.5" transform="rotate(90 60.7273 268.909)" fill="#FFC977"/>
<circle cx="60.5454" cy="304.182" r="3.5" transform="rotate(90 60.5454 304.182)" fill="#FFC977"/>
<circle cx="60.3636" cy="339.454" r="3.5" transform="rotate(90 60.3636 339.454)" fill="#FFC977"/>
<circle cx="35.4849" cy="57.2725" r="3.09091" transform="rotate(90 35.4849 57.2725)" fill="#FFC977"/>
<circle cx="35.303" cy="92.5451" r="3.18182" transform="rotate(90 35.303 92.5451)" fill="#FFC977"/>
<circle cx="35.1212" cy="127.819" r="3.27273" transform="rotate(90 35.1212 127.819)" fill="#FFC977"/>
<circle cx="34.9393" cy="163.091" r="3.36364" transform="rotate(90 34.9393 163.091)" fill="#FFC977"/>
<circle cx="34.7576" cy="198.364" r="3.45455" transform="rotate(90 34.7576 198.364)" fill="#FFC977"/>
<circle cx="34.5758" cy="233.636" r="3.54545" transform="rotate(90 34.5758 233.636)" fill="#FFC977"/>
<circle cx="34.3939" cy="268.909" r="3.63636" transform="rotate(90 34.3939 268.909)" fill="#FFC977"/>
<circle cx="34.2122" cy="304.181" r="3.72727" transform="rotate(90 34.2122 304.181)" fill="#FFC977"/>
<circle cx="34.0303" cy="339.455" r="3.81818" transform="rotate(90 34.0303 339.455)" fill="#FFC977"/>
<circle cx="9.15156" cy="57.2726" r="2.68182" transform="rotate(90 9.15156 57.2726)" fill="#FFC977"/>
<circle cx="8.96974" cy="92.5453" r="2.86364" transform="rotate(90 8.96974 92.5453)" fill="#FFC977"/>
<circle cx="8.78792" cy="127.818" r="3.04545" transform="rotate(90 8.78792 127.818)" fill="#FFC977"/>
<circle cx="8.6061" cy="163.091" r="3.22727" transform="rotate(90 8.6061 163.091)" fill="#FFC977"/>
<circle cx="8.42428" cy="198.363" r="3.40909" transform="rotate(90 8.42428 198.363)" fill="#FFC977"/>
<circle cx="8.24247" cy="233.637" r="3.59091" transform="rotate(90 8.24247 233.637)" fill="#FFC977"/>
<circle cx="8.06065" cy="268.909" r="3.77273" transform="rotate(90 8.06065 268.909)" fill="#FFC977"/>
<circle cx="7.87883" cy="304.182" r="3.95455" transform="rotate(90 7.87883 304.182)" fill="#FFC977"/>
<circle cx="7.69701" cy="339.455" r="4.13636" transform="rotate(90 7.69701 339.455)" fill="#FFC977"/>
</g>
<defs>
<clipPath id="clip0_151_259">
<rect width="349" height="152" fill="white" transform="translate(152) rotate(90)"/>
</clipPath>
</defs>
</svg>
