<svg width="1352" height="2625" viewBox="0 0 1352 2625" fill="none" xmlns="http://www.w3.org/2000/svg">
<path d="M545.178 393.176C532.017 292.625 554.504 161.075 672.463 7.09558C813.078 190.879 818.464 342.565 789.225 448.071L788.304 451.395L791.457 452.795C809.521 460.815 820.639 468.828 827.449 480.361C834.322 492.001 837.177 507.84 837.198 532.383C837.227 573.067 837.273 591.146 837.311 605.949C837.333 614.908 837.353 622.668 837.364 633.514C837.365 635.999 836.854 637.484 836.336 638.278C835.889 638.963 835.36 639.28 834.631 639.382C832.78 639.639 828.878 638.469 823.768 633.36L770.317 579.909C764.816 574.408 760.467 570.209 756.989 567.101C753.554 564.032 750.785 561.858 748.468 560.559C746.208 559.293 743.545 558.391 740.829 559.387C739.362 559.925 738.276 560.894 737.465 561.876L737.39 561.876L736.837 562.708C736.717 562.881 736.605 563.051 736.5 563.215L736.203 563.661C725.292 580.065 712.934 595.46 699.277 609.659L696.557 612.487L699.331 615.261L703.231 619.161L693.748 638.127L651.18 638.127L641.697 619.161L645.598 615.261L648.35 612.508L645.674 609.682C627.532 590.522 564.682 516.769 546.763 404.133L546.762 404.119L546.751 404.027L546.737 403.936C546.171 400.356 545.651 396.769 545.178 393.176Z" stroke="#292525" stroke-width="8"/>
<path d="M511.372 534.77L511.372 534.771C511.387 561.565 511.368 576.158 511.349 590.455C511.332 603.089 511.316 615.492 511.324 635.876C511.325 637.519 511.515 638.373 511.65 638.779C511.997 638.707 512.632 638.513 513.666 637.979C518.12 635.673 524.822 629.699 533.038 621.482C535.228 619.293 537.383 617.129 539.506 614.999C552.365 602.095 564.003 590.416 574.442 581.651C580.539 576.532 586.369 572.283 591.934 569.322C597.488 566.368 603.02 564.565 608.455 564.656M511.372 534.77L608.388 568.656M511.372 534.77C511.342 502.985 516.186 483.355 526.817 472.724C532.601 466.94 536.132 464.307 539.805 462.355C542.271 461.044 544.727 460.057 548.045 458.725C549.288 458.226 550.652 457.678 552.183 457.046M511.372 534.77L553.684 452.079M608.455 564.656L608.388 568.656M608.455 564.656C608.455 564.656 608.455 564.656 608.455 564.656L608.388 568.656M608.455 564.656C608.573 564.658 608.663 564.654 608.731 564.649M608.388 568.656C632.222 569.054 553.684 452.079 553.684 452.079M608.731 564.649C608.695 564.761 608.667 564.807 608.668 564.807C608.668 564.807 608.677 564.794 608.697 564.771C608.774 564.683 608.844 564.642 608.88 564.626M608.731 564.649C608.807 564.642 608.854 564.633 608.88 564.626M608.731 564.649C608.786 564.477 608.86 564.15 608.884 563.592C608.982 561.281 608.125 557.386 606.141 551.989C602.252 541.412 594.813 527.072 586.499 512.499C578.217 497.981 569.183 483.432 562.211 472.501C558.727 467.038 555.762 462.486 553.669 459.301C553.109 458.448 552.612 457.694 552.183 457.046M608.88 564.626C608.898 564.622 608.905 564.618 608.905 564.618C608.904 564.617 608.895 564.619 608.88 564.626ZM552.183 457.046C553.138 456.652 554.158 456.225 555.254 455.758L553.684 452.079M552.183 457.046C551.811 456.484 551.492 456.002 551.229 455.607C550.946 455.181 550.729 454.855 550.583 454.636L550.417 454.39L550.376 454.328L550.366 454.313L550.364 454.309C550.363 454.309 550.363 454.308 553.684 452.079M703.231 619.161L693.748 638.127L651.18 638.127L641.697 619.161L650.365 610.493L694.564 610.493L703.231 619.161ZM673.532 83.5836C652.055 83.7397 631.081 88.5298 614.387 93.7841C636.34 55.4501 657.181 27.1711 672.459 7.27385C694.419 36.0357 713.432 64.3873 729.195 91.5524C712.698 87.1207 693.036 83.4314 673.532 83.5836Z" stroke="#292525" stroke-width="8"/>
<path opacity="0.3" d="M789.224 448.073L788.303 451.398L791.456 452.797C809.575 460.84 820.683 468.551 827.479 479.771C834.328 491.079 837.185 506.583 837.185 531.147C837.185 535.647 837.222 554.744 837.262 575.309C837.311 600.74 837.364 628.417 837.357 633.513L837.357 633.516C837.356 636.019 836.85 637.491 836.348 638.265C835.923 638.919 835.429 639.216 834.72 639.31C832.868 639.557 828.965 638.364 823.741 633.336L821.07 630.664C821.102 621.514 821.394 610.127 821.711 597.779C822.013 585.999 822.338 573.346 822.481 560.926C822.631 547.916 822.577 535.267 822.072 524.457C821.572 513.756 820.618 504.494 818.836 498.461C816.615 490.933 811.061 484.378 805.164 479.12C799.199 473.804 792.478 469.462 787.326 466.446L782.96 463.89L781.48 468.728C776.988 483.408 766.128 506.289 756.034 526.144C751.014 536.02 746.226 545.064 742.588 551.846C740.608 555.536 738.942 558.606 737.771 560.764C736.955 562.267 736.379 563.327 736.106 563.845C724.446 581.466 713.334 594.314 705.072 603.375C705.609 602.156 706.203 600.779 706.847 599.246C709.901 591.983 714.082 581.226 718.629 567.168C727.725 539.05 738.29 497.723 744.25 444.729C755.602 343.793 750.237 200.611 686.285 25.8576C814.138 202.442 817.441 346.255 789.224 448.073Z" stroke="#292525" stroke-width="8"/>
<path d="M702.302 297.805C682.578 317.529 650.474 317.529 630.751 297.805C611.028 278.082 611.028 245.978 630.751 226.255C650.474 206.532 682.578 206.532 702.302 226.255C722.025 245.978 722.025 278.082 702.302 297.805Z" stroke="#292525" stroke-width="8"/>
<path d="M666.526 211.835C653.213 211.835 640.446 217.123 631.033 226.537C621.619 235.95 616.331 248.717 616.331 262.03C616.331 275.342 621.619 288.109 631.033 297.523C640.446 306.936 653.213 312.224 666.526 312.224C679.838 312.224 692.605 306.936 702.019 297.523C711.432 288.109 716.72 275.342 716.72 262.03C716.72 248.717 711.432 235.95 702.019 226.537C692.605 217.123 679.838 211.835 666.526 211.835ZM624.811 303.744C601.81 280.742 601.804 243.323 624.811 220.316C647.819 197.308 685.238 197.314 708.24 220.316C731.242 243.318 731.247 280.737 708.24 303.744C685.233 326.751 647.813 326.746 624.811 303.744Z" stroke="#292525" stroke-width="8"/>
<path opacity="0.5" d="M652.681 646.127L692.241 646.127L701.997 2620.03L638.777 2620.03L652.681 646.127Z" stroke="#292525" stroke-width="8"/>
<path d="M578.215 2580.05L651.817 646.868L667.667 646.868L640.411 2615.96L578.215 2580.05Z" stroke="#292525" stroke-width="8"/>
</svg>
