<svg width="950" height="883" viewBox="0 0 950 883" fill="none" xmlns="http://www.w3.org/2000/svg">
<path d="M582.482 187.508C644.276 107.102 753.197 29.9829 945.486 4.51175C914.962 233.896 811.512 344.963 716.233 398.892L713.231 400.591L714.471 403.81C721.573 422.255 723.769 435.782 720.429 448.753C717.058 461.844 707.877 475.062 690.537 492.431C661.79 521.221 649.039 534.036 638.598 544.53C632.279 550.882 626.806 556.382 619.144 564.059C617.388 565.817 615.976 566.505 615.049 566.701C614.248 566.869 613.65 566.72 613.063 566.276C611.572 565.149 609.64 561.562 609.64 554.337L609.64 478.745C609.64 470.966 609.533 464.922 609.271 460.264C609.013 455.666 608.592 452.17 607.872 449.613C607.17 447.12 605.924 444.599 603.3 443.383C601.882 442.726 600.428 442.644 599.16 442.764L599.108 442.712L598.129 442.909C597.921 442.946 597.721 442.987 597.531 443.029L597.006 443.134C577.691 447.018 558.067 449.165 538.369 449.549L534.447 449.625L534.447 453.548L534.447 459.064L514.33 465.77L484.23 435.67L490.936 415.553L496.452 415.553L500.344 415.553L500.451 411.662C501.17 385.285 508.88 288.693 575.855 196.376L575.864 196.366L575.922 196.294L575.976 196.219C578.107 193.287 580.276 190.383 582.482 187.508Z" stroke="#292525" stroke-width="8"/>
<path d="M458.455 263.725L458.454 263.726C439.52 282.683 429.187 292.989 419.064 303.085C410.118 312.006 401.337 320.765 386.929 335.184C385.768 336.347 385.298 337.085 385.107 337.467C385.402 337.662 385.989 337.975 387.098 338.327C391.878 339.847 400.841 340.361 412.461 340.361C415.557 340.361 418.611 340.355 421.618 340.35C439.836 340.318 456.324 340.289 469.902 341.473C477.834 342.164 484.961 343.282 490.99 345.124C497.005 346.961 502.192 349.599 505.971 353.507M458.455 263.725L503.095 356.287M458.455 263.725C480.91 241.229 498.215 230.774 513.25 230.774C521.43 230.774 525.788 231.408 529.766 232.625C532.437 233.442 534.871 234.482 538.159 235.885C539.391 236.411 540.743 236.989 542.272 237.625M458.455 263.725L546.846 235.173M505.971 353.507L503.095 356.287M505.971 353.507C505.971 353.507 505.971 353.507 505.971 353.506L503.095 356.287M505.971 353.507C506.053 353.591 506.119 353.652 506.171 353.696M503.095 356.287C519.667 373.421 546.846 235.173 546.846 235.173M506.171 353.696C506.066 353.75 506.015 353.763 506.015 353.764C506.015 353.764 506.03 353.761 506.061 353.759C506.177 353.751 506.256 353.772 506.292 353.786M506.171 353.696C506.229 353.745 506.269 353.772 506.292 353.786M506.171 353.696C506.331 353.614 506.615 353.435 507.027 353.057C508.729 351.492 510.879 348.133 513.292 342.913C518.021 332.684 522.901 317.284 527.327 301.1C531.736 284.978 535.635 268.302 538.435 255.643C539.834 249.317 540.956 244.001 541.729 240.269C541.936 239.27 542.117 238.385 542.272 237.625M506.292 353.786C506.308 353.795 506.316 353.798 506.316 353.797C506.316 353.796 506.308 353.792 506.292 353.786ZM542.272 237.625C543.226 238.021 544.249 238.441 545.355 238.885L546.846 235.173M542.272 237.625C542.407 236.964 542.522 236.397 542.616 235.932C542.716 235.431 542.793 235.047 542.844 234.789L542.902 234.497L542.917 234.425L542.92 234.407L542.921 234.403C542.921 234.402 542.921 234.401 546.846 235.173M534.447 459.064L514.33 465.77L484.23 435.67L490.936 415.553L503.194 415.553L534.447 446.806L534.447 459.064ZM892.157 59.3529C876.86 44.2766 858.642 32.8329 843.122 24.7443C885.751 13.1607 920.484 7.90119 945.357 4.63506C940.548 40.5011 933.944 73.993 925.882 104.347C917.351 89.549 906.056 73.0369 892.157 59.3529Z" stroke="#292525" stroke-width="8"/>
<path opacity="0.3" d="M716.231 398.893L713.229 400.592L714.469 403.811C721.594 422.31 723.995 435.618 720.867 448.357C717.714 461.196 708.771 474.179 691.402 491.548C688.22 494.73 674.743 508.26 660.229 522.829C642.281 540.847 622.748 560.455 619.14 564.054L619.138 564.056C617.367 565.825 615.968 566.508 615.066 566.7C614.304 566.862 613.744 566.722 613.176 566.288C611.692 565.153 609.776 561.549 609.637 554.3L609.637 550.523C616.13 544.076 624.389 536.23 633.344 527.722C641.887 519.607 651.064 510.889 659.947 502.208C669.253 493.114 678.16 484.132 685.446 476.131C692.659 468.211 698.534 460.987 701.54 455.461C705.292 448.568 706.001 440.005 705.548 432.117C705.09 424.14 703.407 416.318 701.897 410.542L700.617 405.648L696.15 408.022C682.593 415.226 658.735 423.726 637.557 430.629C627.024 434.062 617.244 437.071 609.875 439.294C605.866 440.504 602.517 441.496 600.163 442.194C598.523 442.68 597.367 443.022 596.807 443.195C576.102 447.411 559.161 448.638 546.91 449.203C548.153 448.721 549.547 448.167 551.086 447.539C558.381 444.563 568.943 439.913 582.1 433.187C608.413 419.737 645.107 397.985 686.794 364.726C766.193 301.381 863.645 196.343 941.993 27.5525C907.535 242.822 808.179 346.849 716.231 398.893Z" stroke="#292525" stroke-width="8"/>
<path d="M761.022 231.174C733.129 231.174 710.428 208.473 710.428 180.58C710.428 152.687 733.129 129.986 761.022 129.986C788.915 129.986 811.616 152.687 811.616 180.58C811.616 208.473 788.915 231.174 761.022 231.174Z" stroke="#292525" stroke-width="8"/>
<path d="M796.515 145.086C787.102 135.673 774.335 130.385 761.022 130.385C747.71 130.385 734.943 135.673 725.529 145.086C716.116 154.5 710.828 167.267 710.828 180.579C710.828 193.892 716.116 206.659 725.529 216.072C734.943 225.486 747.71 230.774 761.022 230.774C774.335 230.774 787.102 225.486 796.515 216.072C805.929 206.659 811.217 193.892 811.217 180.579C811.217 167.267 805.929 154.5 796.515 145.086ZM702.03 180.579C702.03 148.05 728.485 121.586 761.022 121.586C793.56 121.586 820.015 148.05 820.015 180.579C820.015 213.109 793.56 239.572 761.022 239.572C728.485 239.572 702.03 213.109 702.03 180.579Z" stroke="#292525" stroke-width="8"/>
<path opacity="0.5" d="M479.635 442.388L507.608 470.361L-881.256 1873.02L-925.959 1828.32L479.635 442.388Z" stroke="#292525" stroke-width="8"/>
<path d="M-940.512 1757.22L478.5 442.301L489.707 453.509L-921.924 1826.59L-940.512 1757.22Z" stroke="#292525" stroke-width="8"/>
</svg>
